<svg width="203" height="26" viewBox="0 0 203 26" fill="none" xmlns="http://www.w3.org/2000/svg">
<path d="M114.718 7.6978C113.421 7.6978 112.364 8.75259 112.364 10.0514V20.0346C112.364 20.5771 112.806 21.0168 113.347 21.0168H114.085C115.398 21.0168 116.428 19.9439 116.428 18.5744V8.682C116.428 8.13948 115.987 7.69982 115.446 7.69982H114.718V7.6978ZM95.5684 7.69377C94.2958 7.69377 93.0656 8.17982 92.162 9.07528C91.9846 9.25276 91.803 9.45041 91.6235 9.67226C91.6235 9.57545 91.6336 8.68805 91.6316 8.48436C91.6276 8.15158 91.319 7.722 90.6898 7.722C90.6716 7.722 90.3933 7.73209 90.3005 7.73209C89.4474 7.73209 87.4568 8.40974 87.4568 10.7512V20.0044C87.4568 20.5469 87.8965 20.9865 88.439 20.9865H89.1772C90.5264 20.9865 91.6195 19.8934 91.6195 18.5442V13.3731C91.6982 12.2639 92.4565 11.7112 94.5399 11.7112C94.5399 11.7112 96.9741 11.917 96.9741 9.99898C96.9641 8.81915 97.1476 7.69377 95.9718 7.69377H95.5644H95.5684ZM104.1 11.0094C105.757 11.0094 106.663 11.8302 106.663 12.6511H101.46C101.46 12.2054 102.315 11.0094 104.1 11.0094ZM100.568 8.31898C98.7772 9.32537 97.4239 11.2837 97.4239 14.325C97.4239 14.325 97.1496 18.6128 100.606 20.5388C102.758 21.7388 105.905 21.3415 107.149 20.7324C109.327 19.6675 109.561 18.5946 109.533 18.1106C109.466 16.9307 107.923 16.4205 107.923 16.4205C106.649 15.7509 106.735 17.9008 104.279 17.9008C102.046 17.9008 101.462 16.4084 101.339 15.5613H109.182C109.976 15.5613 110.537 14.9039 110.535 14.2C110.535 11.925 109.704 9.6057 107.5 8.28066C106.6 7.74016 105.39 7.41545 104.106 7.41545C102.926 7.41545 101.685 7.68974 100.566 8.31898M60.3207 14.2665C60.3207 11.7213 61.9785 10.9993 63.3116 10.9993C64.9634 10.9993 66.3025 11.9815 66.3025 14.2665C66.3025 14.2665 66.6071 17.9129 63.3116 17.9129C60.0162 17.9129 60.3207 14.2665 60.3207 14.2665ZM62.3536 7.39326C59.5503 7.41142 58.0417 8.75058 57.114 10.4608C56.2407 12.0702 56.281 14.3391 56.281 14.3391C56.281 18.8991 59.1227 21.3173 62.3556 21.3173C65.0783 21.3173 66.1856 19.9459 66.5002 19.5183C66.5002 19.5183 66.2541 21.0107 67.4259 21.0107H68.0733C69.3197 21.0107 70.2958 20.0346 70.2958 18.7902V14.3492V8.61545C70.2958 8.08301 69.8622 7.6857 69.3298 7.6857C69.3298 7.6857 67.1678 7.65545 66.6252 9.70251C65.9899 8.60537 64.9412 7.39326 62.4101 7.39326C62.392 7.39326 62.3758 7.39326 62.3577 7.39326M72.4074 14.319C72.4074 19.3691 75.9368 21.3193 79.2625 21.3193C83.8467 21.3193 85.1879 18.0965 85.3714 17.685C86.3395 15.521 83.2356 15.2084 83.2356 15.2084C82.6266 15.0793 82.0215 15.4242 81.832 16.0131C81.5536 16.8743 80.8901 17.6951 79.3392 17.6951C76.7153 17.6951 76.3825 15.4907 76.3825 14.319C76.3825 14.319 76.2797 10.9791 79.3392 10.9791C81.3197 10.9791 81.7654 12.4595 81.832 12.6612C82.0215 13.2501 82.6266 13.597 83.2356 13.4659C83.2397 13.4659 86.3435 13.1633 85.3714 10.9892C84.3852 8.78284 82.312 7.35898 79.2625 7.35898C72.0323 7.35898 72.4074 14.319 72.4074 14.319ZM167.587 10.3761V14.3714C167.587 15.402 167.353 16.2047 166.895 16.7573C165.911 17.9412 164.184 17.6608 163.515 16.9912C162.904 16.3802 162.958 15.2044 162.958 14.327V8.29881C162.958 7.42553 162 7.33074 161.99 7.33074C159.858 7.33074 158.795 9.14587 158.795 10.3761V15.3758C158.795 16.6766 159.404 20.9845 164.031 20.9845C166.808 20.9845 167.413 19.6413 167.601 19.3348V19.7079C167.601 20.2423 168.034 20.676 168.569 20.676H169.309C170.656 20.676 171.753 19.5808 171.753 18.2316V8.29478C171.753 7.4215 170.795 7.32671 170.785 7.32671C168.653 7.32671 167.591 9.14184 167.591 10.3721M196.278 10.6585C197.935 10.6585 198.841 11.4793 198.841 12.3002H193.638C193.638 11.8544 194.493 10.6585 196.278 10.6585ZM192.746 7.96806C190.955 8.97444 189.602 10.9348 189.602 13.9741C189.602 13.9741 189.328 18.2618 192.785 20.1879C194.936 21.3879 198.083 20.9906 199.327 20.3815C201.507 19.3166 201.739 18.2437 201.711 17.7597C201.644 16.5798 200.102 16.0696 200.102 16.0696C198.827 15.4 198.914 17.5499 196.457 17.5499C194.225 17.5499 193.64 16.0595 193.517 15.2104H201.36C202.155 15.2104 202.715 14.5529 202.713 13.8491C202.713 11.5741 201.882 9.25478 199.678 7.92974C198.779 7.38923 197.568 7.06453 196.284 7.06453C195.104 7.06453 193.864 7.33881 192.744 7.96806M146.184 13.9277C146.184 11.3825 147.842 10.6605 149.175 10.6605C150.827 10.6605 152.166 11.6427 152.166 13.9277C152.166 13.9277 152.471 17.5741 149.175 17.5741C145.88 17.5741 146.184 13.9277 146.184 13.9277ZM148.217 7.05444C145.414 7.07259 143.905 8.41175 142.978 10.122C142.104 11.7314 142.145 14.0003 142.145 14.0003C142.145 18.5603 144.988 20.9785 148.219 20.9785C150.942 20.9785 152.049 19.607 152.364 19.1795C152.364 19.1795 152.118 20.6719 153.289 20.6719H153.937C155.183 20.6719 156.159 19.6958 156.159 18.4514V14.0104V8.27663C156.159 7.74419 155.726 7.34688 155.193 7.34688C155.193 7.34688 153.031 7.31663 152.489 9.36369C151.853 8.26654 150.805 7.05444 148.274 7.05444C148.257 7.05444 148.239 7.05444 148.223 7.05444M43.3835 3.55327C42.835 3.55327 42.3308 3.99898 42.3308 4.54957L42.3409 18.4413C42.3409 19.7886 43.438 20.8837 44.7852 20.8837H51.7291C52.0659 20.8837 52.6669 20.8212 52.917 20.7022C54.7644 19.8148 55.1778 17.0175 53.5967 17.0175H47.3002C46.8625 17.0175 46.5056 16.6605 46.5056 16.2228L46.552 6.03595C46.552 4.66654 45.4367 3.55125 44.0672 3.55125H43.3835V3.55327ZM131.371 3.3415C126.984 3.3415 126.109 7.15125 126.109 8.62755C126.109 10.7573 127.17 12.3889 128.848 13.1936C129.675 13.5909 130.606 13.7926 131.613 13.7926H134.233C134.565 13.7926 135.788 14.0366 135.788 15.3718C135.788 15.6581 135.554 16.9267 134.233 16.9267H129.394C126.708 16.9267 126.811 19.722 126.811 19.722C126.811 20.2383 127.232 20.6598 127.749 20.6598H134.815C139.275 20.6598 140.102 16.7069 140.102 15.0087C140.102 10.4891 135.961 9.91629 134.571 9.91629H131.831C131.439 9.91629 130.445 9.66621 130.445 8.50654C130.445 8.22621 130.631 7.07259 131.831 7.07259H136.449C139.135 7.07259 139.035 4.27932 139.035 4.2773C139.035 3.761 138.613 3.33948 138.097 3.33948H131.371V3.3415ZM114.117 3.1257C113.04 3.1257 112.165 3.99898 112.165 5.07797C112.165 6.15696 113.038 7.03024 114.117 7.03024H114.607C115.684 7.03024 116.559 6.15696 116.559 5.07797C116.559 3.99898 115.686 3.1257 114.607 3.1257H114.117ZM177.816 14.0044C177.816 11.4107 179.429 10.6343 180.75 10.6343C182.188 10.6343 183.685 11.5318 183.685 13.8874C183.685 14.0044 184.068 17.5519 180.75 17.5519C177.433 17.5519 177.816 14.0064 177.816 14.0064M186.728 2.3452H186.71C185.891 2.3452 185.084 2.67999 184.495 3.26486C183.915 3.84167 183.596 4.59797 183.596 5.39259V8.46419C182.289 6.96974 180.708 7.01209 179.768 7.01209C173.643 7.01209 173.762 13.9983 173.762 13.9983C173.762 20.317 178.506 20.9644 179.768 20.9644C182.61 20.9644 183.368 19.6292 183.646 19.2783V19.6877C183.646 20.2222 184.082 20.6578 184.614 20.6578H185.355C186.637 20.6578 187.68 19.6151 187.68 18.3324V3.3173C187.68 2.78688 187.254 2.35125 186.73 2.34923L186.728 2.3452ZM167.74 2.12537C167.23 2.12537 166.746 2.35528 166.443 2.74654L164.733 5.7294C164.533 5.98553 164.461 6.29411 164.537 6.57646C164.658 7.02822 165.092 7.34486 165.588 7.34486C167.224 7.34486 168.694 6.10049 169.428 4.75125L170.047 3.61377C170.202 3.32738 170.223 3.01074 170.1 2.74251C169.928 2.36738 169.537 2.12738 169.103 2.12738H167.744L167.74 2.12537Z" fill="#018762"/>
<path d="M18.6958 0.989931C16.8363 0.989931 11.2841 2.2706 11.2841 8.48439C11.2841 11.5439 12.8188 13.7563 15.2713 14.9119C16.4854 15.4847 17.8387 15.7711 19.3271 15.7711H22.8545C24.0464 15.7711 24.6757 16.6101 24.6757 17.5237C24.6757 18.7177 23.276 19.242 22.8545 19.242H9.11397C8.01078 19.242 7.49851 18.2558 7.49851 17.5923V5.17279C7.49851 2.86153 5.62489 0.987915 3.31363 0.987915H1.69817C0.800691 0.987915 0.0726242 1.71598 0.0726242 2.61346V17.5237C0.0726242 24.0925 6.40943 25.0525 8.15195 25.0525H23.9536C30.353 25.0525 31.7909 19.6877 31.7909 17.1123C31.7909 10.6847 25.7022 9.85783 23.6088 9.85783H19.9805C18.9822 9.85783 18.3993 9.13581 18.3993 8.31094C18.3993 7.06657 19.4541 6.79833 19.9805 6.79833H26.3294C28.6407 6.79833 30.5143 4.92472 30.5143 2.61346C30.5143 2.61346 30.5002 0.987915 28.8888 0.987915H18.6958V0.989931Z" fill="black"/>
<path d="M18.6958 0.989931C16.8363 0.989931 11.2841 2.2706 11.2841 8.48439C11.2841 11.5439 12.8188 13.7563 15.2713 14.9119C16.4854 15.4847 17.8387 15.7711 19.3271 15.7711H22.8545C24.0464 15.7711 24.6757 16.6101 24.6757 17.5237C24.6757 18.7177 23.276 19.242 22.8545 19.242H9.11397C8.01078 19.242 7.49851 18.2558 7.49851 17.5923V5.17279C7.49851 2.86153 5.62489 0.987915 3.31363 0.987915H1.69817C0.800691 0.987915 0.0726242 1.71598 0.0726242 2.61346V17.5237C0.0726242 24.0925 6.40943 25.0525 8.15195 25.0525H23.9536C30.353 25.0525 31.7909 19.6877 31.7909 17.1123C31.7909 10.6847 25.7022 9.85783 23.6088 9.85783H19.9805C18.9822 9.85783 18.3993 9.13581 18.3993 8.31094C18.3993 7.06657 19.4541 6.79833 19.9805 6.79833H26.3294C28.6407 6.79833 30.5143 4.92472 30.5143 2.61346C30.5143 2.61346 30.5002 0.987915 28.8888 0.987915H18.6958V0.989931Z" fill="url(#paint0_linear_12914_9709)"/>
<defs>
<linearGradient id="paint0_linear_12914_9709" x1="-1.8166" y1="14.4546" x2="30.1048" y2="14.4546" gradientUnits="userSpaceOnUse">
<stop stop-color="#008392"/>
<stop offset="1" stop-color="#00BC86"/>
</linearGradient>
</defs>
</svg>
