<svg width="170" height="48" viewBox="0 0 170 48" fill="none" xmlns="http://www.w3.org/2000/svg">
<path d="M46.266 18.0569H39.1361C37.1757 18.0569 36.0274 16.6402 36.0274 15.0159C36.0274 12.5724 38.0999 12.0426 39.1361 12.0426H51.6151C56.1568 12.0426 59.8396 8.3598 59.8396 3.81816C59.8396 3.81816 59.8139 0.623134 56.6445 0.623134H36.6086C32.9561 0.623134 22.0407 3.14134 22.0407 15.352C22.0407 21.3663 25.0584 25.7119 29.8778 27.9874C32.2653 29.1146 34.9212 29.6771 37.8502 29.6771H44.7816C47.1248 29.6771 48.3617 31.3271 48.3617 33.1218C48.3617 35.4696 45.6102 36.5012 44.7816 36.5012H17.7722C15.604 36.5012 14.5958 34.5618 14.5958 33.2572V8.84524C14.5958 4.30359 10.913 0.620799 6.37137 0.620799H3.19502C1.43064 0.620799 0 2.05144 0 3.81582V33.1218C0 46.0302 12.4533 47.9183 15.8794 47.9183H46.9381C59.5152 47.9183 62.3438 37.3717 62.3438 32.3096C62.3438 19.6766 50.3758 18.0522 46.2636 18.0522L46.266 18.0569Z" fill="#018762"/>
<path d="M132.394 32.2746C129.939 32.2746 128.713 34.3657 128.713 35.7824V40.3824C128.713 41.5703 128.445 42.4945 127.915 43.1316C126.781 44.4946 124.793 44.1725 124.022 43.4C123.32 42.6975 123.383 41.3416 123.383 40.331V33.3879C123.383 32.382 122.279 32.2723 122.267 32.2723C119.812 32.2723 118.587 34.3634 118.587 35.78V41.5399C118.587 43.0383 119.289 48 124.617 48C127.817 48 128.513 46.4527 128.727 46.1003V46.5297C128.727 47.1458 129.227 47.6453 129.841 47.6453H130.692C132.244 47.6453 133.507 46.3827 133.507 44.8307V33.3855C133.507 32.3796 132.403 32.2699 132.392 32.2699L132.394 32.2746Z" fill="#018762"/>
<path d="M128.879 26.279C128.291 26.279 127.736 26.545 127.385 26.9955L125.416 30.4309C125.185 30.7273 125.103 31.082 125.189 31.4064C125.329 31.9269 125.826 32.291 126.401 32.291C128.284 32.291 129.978 30.8556 130.823 29.3036L131.535 27.9944C131.715 27.6653 131.736 27.2989 131.593 26.9908C131.397 26.5591 130.945 26.2813 130.445 26.2813H128.879V26.279Z" fill="#018762"/>
<path d="M90.6789 35.2549H87.5212C87.0708 35.2549 85.9272 34.9679 85.9272 33.6329C85.9272 33.3108 86.1396 31.9829 87.5212 31.9829H92.8423C95.937 31.9829 95.8203 28.7645 95.8203 28.7645C95.8203 28.1694 95.3349 27.684 94.7397 27.684H86.9914C81.9387 27.684 80.9304 32.0739 80.9304 33.7729C80.9304 36.2258 82.151 38.1045 84.0858 39.0334C85.038 39.4908 86.1115 39.7242 87.2715 39.7242H90.2891C90.6742 39.7242 92.0792 40.0043 92.0792 41.5423C92.0792 41.8737 91.8084 43.3323 90.2891 43.3323H84.7159C81.6212 43.3323 81.7403 46.5507 81.7403 46.5507C81.7403 47.1458 82.2257 47.6313 82.8208 47.6313H90.9589C96.0934 47.6313 97.0479 43.0779 97.0479 41.1222C97.0479 35.9177 92.2799 35.2573 90.6789 35.2573V35.2549Z" fill="#018762"/>
<path d="M115.546 33.3692C115.546 32.7554 115.046 32.298 114.433 32.298C114.433 32.298 111.942 32.2629 111.317 34.6201C110.579 33.3482 109.361 31.9409 106.402 31.9596C103.172 31.9806 101.436 33.5232 100.367 35.493C99.3607 37.346 99.4074 39.9599 99.4074 39.9599C99.4074 45.2134 102.682 47.9977 106.404 47.9977C109.541 47.9977 110.815 46.4177 111.177 45.9252C111.177 45.9252 110.895 47.6429 112.244 47.6429H112.988C114.423 47.6429 115.548 46.518 115.548 45.0874V33.3692H115.546ZM107.506 44.0768C103.716 44.0768 104.061 39.8783 104.061 39.8783C104.061 36.947 105.97 36.1138 107.506 36.1138C109.408 36.1138 110.951 37.2457 110.951 39.8783C110.951 39.8783 111.303 44.0768 107.506 44.0768Z" fill="#018762"/>
<path d="M165.672 32.9701C163.684 31.7728 160.379 31.4998 157.686 33.0144C155.623 34.1744 154.064 36.4312 154.064 39.9319C154.064 39.9319 153.746 44.8703 157.73 47.0898C160.208 48.4714 163.833 48.014 165.266 47.3139C167.775 46.0863 168.043 44.8517 168.013 44.2939C167.936 42.9333 166.16 42.3475 166.16 42.3475C164.692 41.5773 164.792 44.0512 161.961 44.0512C159.392 44.0512 158.717 42.3335 158.575 41.3556H167.609C168.524 41.3556 169.168 40.5994 169.168 39.7872C169.168 37.1663 168.209 34.4964 165.672 32.9678V32.9701ZM158.71 38.0019C158.71 37.4884 159.695 36.1115 161.751 36.1115C163.66 36.1115 164.703 37.0566 164.703 38.0019H158.71Z" fill="#018762"/>
<path d="M150.749 26.5334H150.728C149.786 26.5334 148.857 26.9185 148.178 27.5929C147.51 28.2581 147.141 29.1263 147.141 30.0435V33.5816C145.636 31.8592 143.813 31.9082 142.733 31.9082C135.678 31.9082 135.815 39.9553 135.815 39.9553C135.815 47.2322 141.279 47.979 142.733 47.979C146.005 47.979 146.88 46.441 147.2 46.0373V46.5087C147.2 47.1248 147.701 47.6243 148.315 47.6243H149.167C150.644 47.6243 151.844 46.4223 151.844 44.9473V27.649C151.844 27.0375 151.354 26.5357 150.749 26.5334ZM143.865 44.0488C140.135 44.0488 140.485 39.9646 140.485 39.9646C140.485 36.9773 142.343 36.0834 143.865 36.0834C145.519 36.0834 147.244 37.1173 147.244 39.8292C147.244 39.9646 147.685 44.0488 143.865 44.0488Z" fill="#018762"/>
<path d="M124.319 20.9508C129.598 20.9508 131.143 17.24 131.353 16.7663C132.466 14.2737 128.893 13.9143 128.893 13.9143C128.191 13.765 127.495 14.164 127.276 14.8409C126.956 15.8327 126.191 16.7779 124.405 16.7779C121.385 16.7779 121 14.2387 121 12.8898C121 12.8898 120.881 9.04361 124.405 9.04361C126.685 9.04361 127.201 10.7496 127.276 10.9807C127.495 11.6598 128.191 12.0566 128.893 11.9072C128.898 11.9072 132.473 11.5595 131.353 9.05528C130.219 6.51374 127.829 4.87305 124.319 4.87305C115.989 4.87305 116.421 12.8898 116.421 12.8898C116.421 18.708 120.487 20.9508 124.319 20.9508Z" fill="#018762"/>
<path d="M165.994 5.26046H165.154C163.66 5.26046 162.444 6.47639 162.444 7.97005V19.4689C162.444 20.092 162.953 20.6008 163.576 20.6008H164.428C165.94 20.6008 167.126 19.3638 167.126 17.7862V6.39238C167.126 5.76924 166.617 5.26046 165.994 5.26046Z" fill="#018762"/>
<path d="M165.019 0H164.454C163.213 0 162.206 1.00623 162.206 2.24749V2.24982C162.206 3.49107 163.213 4.4973 164.454 4.4973H165.019C166.26 4.4973 167.266 3.49107 167.266 2.24982V2.24749C167.266 1.00623 166.26 0 165.019 0Z" fill="#018762"/>
<path d="M138.555 17.7535V11.7975C138.644 10.5186 139.519 9.88379 141.918 9.88379C141.918 9.88379 144.723 10.1218 144.723 7.9117C144.712 6.55341 144.922 5.25813 143.571 5.25813H143.101C141.636 5.25813 140.219 5.81825 139.178 6.84981C138.973 7.05285 138.765 7.28157 138.56 7.53829C138.56 7.42627 138.572 6.40638 138.569 6.17066C138.564 5.78558 138.21 5.29314 137.484 5.29314C137.463 5.29314 137.141 5.30481 137.036 5.30481C136.053 5.30481 133.761 6.08431 133.761 8.78223V19.4409C133.761 20.0663 134.268 20.5728 134.893 20.5728H135.745C137.3 20.5728 138.56 19.3125 138.56 17.7582L138.555 17.7535Z" fill="#018762"/>
<path d="M113.992 6.32003C113.992 5.70623 113.492 5.24879 112.878 5.24879C112.878 5.24879 110.388 5.21379 109.763 7.57096C109.025 6.29902 107.807 4.89172 104.848 4.91039C101.618 4.93139 99.8812 6.47406 98.8123 8.44382C97.8064 10.2969 97.8531 12.9108 97.8531 12.9108C97.8531 18.1642 101.127 20.9485 104.85 20.9485C107.987 20.9485 109.261 19.3685 109.623 18.8761C109.623 18.8761 109.34 20.5938 110.689 20.5938H111.434C112.869 20.5938 113.994 19.4689 113.994 18.0382V6.32003H113.992ZM105.951 17.0277C102.161 17.0277 102.507 12.8291 102.507 12.8291C102.507 9.8978 104.416 9.06462 105.951 9.06462C107.854 9.06462 109.396 10.1965 109.396 12.8291C109.396 12.8291 109.749 17.0277 105.951 17.0277Z" fill="#018762"/>
<path d="M156.845 5.93261C154.857 4.73535 151.552 4.46229 148.859 5.97695C146.796 7.13687 145.237 9.39369 145.237 12.8944C145.237 12.8944 144.92 17.8328 148.903 20.0523C151.382 21.4339 155.006 20.9765 156.439 20.2764C158.948 19.0488 159.217 17.8142 159.186 17.2564C159.109 15.8958 157.333 15.31 157.333 15.31C155.865 14.5398 155.966 17.0137 153.135 17.0137C150.565 17.0137 149.891 15.296 149.748 14.3181H158.783C159.697 14.3181 160.342 13.5619 160.342 12.7497C160.342 10.1288 159.382 7.45894 156.845 5.93028V5.93261ZM149.884 10.9644C149.884 10.4509 150.868 9.07395 152.925 9.07395C154.834 9.07395 155.877 10.0192 155.877 10.9644H149.884Z" fill="#018762"/>
<path d="M84.5992 20.4537H92.5973C92.9847 20.4537 93.6778 20.3814 93.9649 20.2437C96.0934 19.2215 96.5695 16.0008 94.7491 16.0008H87.4978C86.9937 16.0008 86.583 15.59 86.583 15.0859L86.6367 3.35372C86.6367 1.77605 85.3531 0.49244 83.7754 0.49244H82.9865C82.3541 0.49244 81.7753 1.00588 81.7753 1.63835L81.7869 17.6391C81.7869 19.1911 83.0496 20.4537 84.6016 20.4537H84.5992Z" fill="#018762"/>
</svg>
